#N canvas 70 57 1385 841 10;
#X obj 286 194 bng 15 250 50 0 empty empty empty 17 7 0 10 -262144
-1 -1;
#X obj 287 170 metro 1000;
#X obj 285 103 tgl 15 0 empty empty empty 17 7 0 10 -262144 -1 -1 0
1;
#X obj 428 299 bng 15 250 50 0 empty empty empty 17 7 0 10 -262144
-1 -1;
#X obj 291 300 bng 15 250 50 0 empty empty empty 17 7 0 10 -262144
-1 -1;
#X msg 430 339 one;
#X msg 290 341 three;
#X obj 295 389 print;
#X obj 130 64 loadbang;
#X obj 150 152 bng 15 250 50 0 empty empty empty 17 7 0 10 -262144
-1 -1;
#X msg 179 281 start;
#X floatatom 370 111 5 0 0 0 - - -, f 5;
#X msg 199 124 1;
#X obj 146 91 bng 15 250 50 0 empty empty empty 17 7 0 10 -262144 -1
-1;
#X obj 291 270 trigger bang float bang;
#X msg 289 223 4;
#X floatatom 356 330 5 0 0 0 - - -, f 5;
#X floatatom 80 412 5 0 0 0 - - -, f 5;
#X msg 31 352 1;
#X msg 101 354 2;
#X obj 687 103 tgl 15 0 empty empty empty 17 7 0 10 -262144 -1 -1 1
1;
#X obj 687 162 bng 15 250 50 0 empty empty empty 17 7 0 10 -262144
-1 -1;
#X obj 689 220 float;
#X floatatom 564 138 5 0 0 0 - - -, f 5;
#X floatatom 688 258 5 0 0 0 - - -, f 5;
#X floatatom 743 173 5 0 0 0 - - -, f 5;
#X text 620 212 hot inlet;
#X text 760 216 cold inlet;
#X obj 691 286 + 1;
#X floatatom 689 317 5 0 0 0 - - -, f 5;
#X floatatom 52 505 5 0 0 0 - - -, f 5;
#X obj 58 573 div 4;
#X floatatom 63 622 5 0 0 0 - - -, f 5;
#X obj 119 575 mod 4;
#X floatatom 121 616 5 0 0 0 - - -, f 5;
#X obj 688 347 mod 8;
#X floatatom 687 372 5 0 0 0 - - -, f 5;
#X text 741 348 mod gives you the remainder of the division;
#X floatatom 688 401 5 0 0 0 - - -, f 5;
#X text 727 399 current step;
#X obj 687 442 select 0 1 2 3 4 5 6 7;
#X obj 684 487 bng 15 250 50 0 empty empty empty 17 7 0 10 -262144
-1 -1;
#X obj 724 487 bng 15 250 50 0 empty empty empty 17 7 0 10 -262144
-1 -1;
#X obj 762 485 bng 15 250 50 0 empty empty empty 17 7 0 10 -262144
-1 -1;
#X obj 802 485 bng 15 250 50 0 empty empty empty 17 7 0 10 -262144
-1 -1;
#X obj 845 482 bng 15 250 50 0 empty empty empty 17 7 0 10 -262144
-1 -1;
#X obj 885 482 bng 15 250 50 0 empty empty empty 17 7 0 10 -262144
-1 -1;
#X obj 923 480 bng 15 250 50 0 empty empty empty 17 7 0 10 -262144
-1 -1;
#X obj 963 480 bng 15 250 50 0 empty empty empty 17 7 0 10 -262144
-1 -1;
#X floatatom 839 573 5 0 0 0 - - -, f 5;
#X obj 834 706 osc~;
#X obj 841 668 mtof;
#X msg 681 519 60;
#X msg 721 519 62;
#X msg 759 517 64;
#X msg 799 517 65;
#X msg 843 513 67;
#X msg 882 512 69;
#X msg 920 512 71;
#X msg 960 512 72;
#X obj 841 595 + 0;
#X floatatom 903 573 5 0 0 0 - - -, f 5;
#X text 794 104 sequencer;
#X obj 833 783 dac~;
#X obj 1069 563 line~ 0;
#X floatatom 1074 477 5 0 0 0 - - -, f 5;
#X obj 833 746 *~;
#X msg 1077 524 \$1 1000;
#X obj 659 746 delwrite~ myBuffer 1000;
#X obj 1044 751 delread~ myBuffer 500;
#X floatatom 1044 724 5 0 0 0 - - -, f 5;
#X obj 1180 505 osc~;
#X floatatom 1181 474 5 0 0 0 - - -, f 5;
#X obj 1175 533 *~ 100;
#X obj 1173 561 abs~;
#X obj 1187 611 snapshot~;
#X obj 1249 567 bng 15 250 50 0 empty empty empty 17 7 0 10 -262144
-1 -1;
#X floatatom 1157 648 5 0 0 0 - - -, f 5;
#X obj 1256 499 tgl 15 0 empty empty empty 17 7 0 10 -262144 -1 -1
1 1;
#X obj 763 653 line 0;
#X floatatom 763 605 5 0 0 0 - - -, f 5;
#X floatatom 1214 677 5 0 0 0 - - -, f 5;
#X obj 1256 534 metro 100;
#X msg 1214 701 \$1 30;
#X obj 1214 725 line 0 1000;
#X obj 687 131 metro 100000;
#X msg 763 629 \$1 20000;
#X obj 989 155 phasor~;
#X obj 377 562 osc~;
#X obj 442 565 osc~;
#X floatatom 455 506 5 0 0 0 - - -, f 5;
#X floatatom 336 471 5 0 0 0 - - -, f 5;
#X floatatom 400 439 5 0 0 0 - - -, f 5;
#X obj 424 470 bng 15 250 50 0 empty empty empty 17 7 0 10 -262144
-1 -1;
#X text 433 443 lame hard sync;
#X text 1056 157 sawtooth wave;
#X obj 1011 209 lop~;
#X floatatom 260 658 5 0 0 0 - - -, f 5;
#X obj 254 736 dac~;
#N canvas 51 107 677 541 coolOsc 0;
#X obj 102 159 osc~;
#X floatatom 71 82 5 0 0 0 - - -, f 5;
#X obj 112 229 *~;
#X obj 168 182 + 5;
#X obj 78 40 inlet;
#X obj 111 279 outlet~;
#X obj 201 60 sel 0 12 3 4 5;
#X connect 0 0 2 0;
#X connect 1 0 0 0;
#X connect 1 0 3 0;
#X connect 2 0 5 0;
#X connect 3 0 2 1;
#X connect 4 0 1 0;
#X restore 173 691 pd coolOsc;
#X text 326 692 subpatcher dobule click me;
#X floatatom 492 663 5 0 0 0 - - -, f 5;
#X floatatom 492 734 5 0 0 0 - - -, f 5;
#X obj 490 701 stuff;
#X text 535 702 external file;
#X connect 0 0 15 0;
#X connect 1 0 0 0;
#X connect 2 0 1 0;
#X connect 3 0 5 0;
#X connect 4 0 6 0;
#X connect 5 0 7 0;
#X connect 6 0 7 0;
#X connect 8 0 13 0;
#X connect 9 0 10 0;
#X connect 10 0 7 0;
#X connect 11 0 1 1;
#X connect 12 0 2 0;
#X connect 13 0 12 0;
#X connect 13 0 9 0;
#X connect 14 0 4 0;
#X connect 14 1 16 0;
#X connect 14 2 3 0;
#X connect 15 0 14 0;
#X connect 16 0 7 0;
#X connect 18 0 17 0;
#X connect 19 0 17 0;
#X connect 20 0 85 0;
#X connect 21 0 22 0;
#X connect 22 0 24 0;
#X connect 23 0 22 0;
#X connect 24 0 28 0;
#X connect 25 0 22 1;
#X connect 28 0 29 0;
#X connect 29 0 35 0;
#X connect 30 0 31 0;
#X connect 30 0 33 0;
#X connect 31 0 32 0;
#X connect 33 0 34 0;
#X connect 35 0 36 0;
#X connect 36 0 25 0;
#X connect 36 0 38 0;
#X connect 38 0 40 0;
#X connect 40 0 41 0;
#X connect 40 1 42 0;
#X connect 40 2 43 0;
#X connect 40 3 44 0;
#X connect 40 4 45 0;
#X connect 40 5 46 0;
#X connect 40 6 47 0;
#X connect 40 7 48 0;
#X connect 41 0 52 0;
#X connect 42 0 53 0;
#X connect 43 0 54 0;
#X connect 44 0 55 0;
#X connect 45 0 56 0;
#X connect 46 0 57 0;
#X connect 47 0 58 0;
#X connect 48 0 59 0;
#X connect 49 0 60 0;
#X connect 50 0 66 0;
#X connect 50 0 68 0;
#X connect 51 0 50 0;
#X connect 51 0 50 1;
#X connect 52 0 49 0;
#X connect 53 0 49 0;
#X connect 54 0 49 0;
#X connect 55 0 49 0;
#X connect 56 0 49 0;
#X connect 57 0 49 0;
#X connect 58 0 49 0;
#X connect 59 0 49 0;
#X connect 60 0 80 0;
#X connect 61 0 60 1;
#X connect 64 0 66 1;
#X connect 65 0 67 0;
#X connect 66 0 63 0;
#X connect 67 0 64 0;
#X connect 69 0 63 1;
#X connect 70 0 69 0;
#X connect 71 0 73 0;
#X connect 72 0 71 0;
#X connect 73 0 74 0;
#X connect 74 0 75 0;
#X connect 75 0 77 0;
#X connect 76 0 75 0;
#X connect 77 0 81 0;
#X connect 78 0 82 0;
#X connect 79 0 51 0;
#X connect 80 0 86 0;
#X connect 81 0 83 0;
#X connect 82 0 76 0;
#X connect 83 0 84 0;
#X connect 84 0 70 0;
#X connect 85 0 21 0;
#X connect 86 0 79 0;
#X connect 90 0 88 1;
#X connect 90 0 89 1;
#X connect 91 0 88 0;
#X connect 91 0 93 0;
#X connect 92 0 89 0;
#X connect 92 0 93 0;
#X connect 93 0 90 0;
#X connect 97 0 99 0;
#X connect 99 0 98 0;
#X connect 101 0 103 0;
#X connect 103 0 102 0;
